<?xml version="1.0" standalone="no"?>
<!DOCTYPE svg PUBLIC "-//W3C//DTD SVG 20010904//EN"
 "http://www.w3.org/TR/2001/REC-SVG-20010904/DTD/svg10.dtd">
<svg version="1.0" xmlns="http://www.w3.org/2000/svg"
 width="2000.000000pt" height="1500.000000pt" viewBox="0 0 2000.000000 1500.000000"
 preserveAspectRatio="xMidYMid meet">

<g transform="translate(0.000000,1500.000000) scale(0.100000,-0.100000)"
fill="#000000" stroke="none">
<path d="M8926 11848 c-15 -25 -38 -233 -29 -268 11 -40 50 -36 147 15 126 67
156 90 156 123 0 24 -13 35 -103 90 -111 67 -148 76 -171 40z"/>
<path d="M5674 11841 c-22 -10 -49 -30 -60 -43 -16 -21 -34 -27 -103 -37 -101
-15 -208 -52 -276 -96 -204 -131 -347 -461 -385 -889 l-10 -110 80 -123 c124
-190 289 -472 466 -795 l69 -127 85 -16 c227 -44 523 -18 550 49 5 11 21 82
35 156 53 273 135 562 191 672 25 49 80 118 94 118 5 0 -1 -26 -12 -57 -17
-46 -21 -82 -21 -168 -1 -130 22 -203 84 -269 l38 -41 131 -3 131 -4 43 44
c66 66 90 138 90 273 0 139 -23 207 -93 276 -45 43 -48 49 -60 128 l-12 84 39
41 c21 22 49 55 60 72 17 25 32 33 66 38 71 11 163 62 193 107 21 33 26 50 25
102 -5 246 -182 470 -419 532 -82 21 -267 19 -373 -4 l-85 -19 -55 28 c-133
69 -253 100 -383 100 -58 0 -94 -6 -123 -19z m1101 -1381 c17 -33 20 -126 5
-164 -14 -38 -53 -60 -80 -46 -29 15 -50 69 -50 125 0 119 80 173 125 85z"/>
<path d="M12520 11103 c-43 -22 -75 -69 -84 -121 l-6 -40 -37 19 c-47 24 -64
24 -96 -1 -25 -20 -38 -51 -72 -172 -9 -33 -29 -73 -47 -94 -38 -43 -42 -96
-10 -166 18 -41 19 -48 5 -48 -13 0 -14 -8 -9 -41 21 -128 120 -207 226 -179
72 19 120 91 120 179 0 29 3 32 28 29 25 -3 28 -8 33 -55 13 -102 70 -157 164
-157 89 0 171 64 191 149 l7 30 8 -35 c4 -19 15 -97 24 -173 10 -76 20 -135
22 -133 3 3 18 43 34 91 34 100 58 150 109 226 106 157 116 248 35 338 -23 25
-36 54 -44 93 -7 31 -21 69 -33 83 -22 28 -199 117 -318 160 -99 35 -202 43
-250 18z m26 -384 c13 -21 150 -79 226 -96 76 -16 77 -17 93 -57 9 -23 24 -49
32 -58 15 -17 14 -18 -10 -18 -15 0 -36 11 -49 24 -63 66 -146 86 -167 40 -14
-32 -7 -44 27 -45 15 0 -6 -7 -47 -14 -55 -10 -79 -11 -98 -2 -18 8 -29 8 -42
0 -12 -8 -31 -9 -57 -2 -22 4 -74 9 -116 9 l-78 0 0 31 c0 42 78 117 171 163
75 37 103 44 115 25z m-77 -259 c36 -19 8 -118 -45 -159 -36 -28 -107 -28
-153 0 -29 18 -33 24 -27 51 3 17 6 50 6 74 0 32 4 44 18 48 27 8 179 -2 201
-14z m384 11 c26 -4 50 -11 54 -14 12 -12 -18 -87 -47 -121 -40 -45 -79 -60
-142 -54 -67 7 -113 52 -123 122 -4 26 -5 49 -2 52 18 19 181 28 260 15z
m-637 -109 c-2 -2 -11 17 -19 42 -8 24 -12 47 -9 51 4 3 12 -15 19 -42 7 -26
11 -49 9 -51z"/>
<path d="M12350 10573 c-52 -35 -56 -66 -8 -52 18 5 45 9 60 9 32 0 37 20 12
44 -20 20 -34 20 -64 -1z"/>
<path d="M12367 10443 c-13 -12 -7 -44 9 -50 20 -7 33 12 27 38 -5 19 -24 25
-36 12z"/>
<path d="M12707 10444 c-4 -4 -7 -18 -7 -31 0 -18 5 -24 18 -21 10 2 17 12 17
27 0 24 -15 37 -28 25z"/>
<path d="M14216 9667 c-17 -13 -17 -15 -2 -45 19 -36 67 -75 115 -91 38 -12
189 -15 208 -3 7 4 13 28 15 52 2 35 -1 45 -14 48 -12 2 -19 -6 -24 -32 -3
-20 -9 -36 -13 -36 -3 0 -61 19 -128 42 -95 33 -123 47 -123 60 0 21 -10 23
-34 5z"/>
<path d="M5725 9103 c-241 -20 -400 -81 -515 -195 -32 -32 -67 -60 -77 -62
-46 -9 -152 -59 -146 -69 4 -6 0 -8 -8 -5 -8 3 -23 0 -34 -8 -18 -14 -18 -14
1 -29 10 -8 14 -15 7 -15 -6 0 -20 -3 -30 -6 -15 -5 -15 -4 -3 5 22 15 3 26
-23 12 -12 -7 -41 -30 -65 -51 -43 -39 -48 -64 -14 -73 15 -4 15 -5 0 -6 -10
0 -18 -7 -18 -13 0 -9 -3 -9 -9 1 -5 8 -7 20 -4 28 13 33 -19 6 -73 -63 -40
-50 -65 -100 -56 -109 4 -3 1 -5 -6 -3 -9 2 -23 -24 -42 -77 -47 -137 -50
-150 -57 -251 -10 -139 -10 -542 0 -585 l8 -37 37 11 c20 6 39 14 42 17 3 3
40 15 83 25 61 15 77 23 77 37 0 21 43 41 74 35 14 -2 6 -7 -21 -12 -24 -4
-43 -11 -43 -16 0 -12 15 -11 95 7 39 8 126 22 195 31 69 9 127 19 130 23 16
20 810 18 810 -2 0 -5 15 -8 33 -8 58 -1 323 -48 387 -69 14 -5 72 -24 130
-42 58 -19 107 -37 110 -41 3 -3 32 -17 65 -29 61 -23 131 -64 221 -130 29
-21 54 -35 58 -32 3 4 6 0 6 -8 0 -8 19 -34 43 -59 38 -42 97 -144 97 -169 0
-6 14 -50 30 -99 17 -48 37 -116 46 -151 8 -36 18 -69 22 -75 5 -6 14 -36 21
-66 28 -120 53 -200 63 -200 4 0 8 -13 8 -28 0 -16 11 -66 25 -112 14 -46 25
-91 25 -99 0 -9 6 -28 14 -42 7 -14 16 -43 20 -65 4 -21 13 -57 20 -79 7 -22
19 -65 26 -95 12 -54 78 -287 125 -445 13 -44 43 -143 65 -220 214 -724 362
-1136 445 -1233 65 -77 225 -127 545 -171 80 -11 197 -27 260 -36 298 -41 566
-118 658 -188 132 -101 183 -229 182 -453 0 -113 -25 -329 -45 -381 -3 -10
-53 -13 -200 -13 -124 0 -195 -4 -195 -10 0 -6 16 -108 35 -228 20 -119 49
-305 66 -412 16 -107 52 -330 79 -495 27 -165 63 -390 81 -500 18 -110 33
-201 33 -202 2 -2 561 -32 742 -39 l171 -7 8 399 c22 1169 21 2134 -4 2454
-26 337 -64 569 -111 679 -13 28 -39 65 -59 83 -40 35 -163 95 -261 126 -332
106 -996 218 -1765 297 -88 9 -162 19 -164 21 -2 2 6 11 18 21 l22 18 -41 90
c-60 130 -62 137 -128 290 -33 77 -69 167 -81 200 -13 33 -33 87 -46 120 -62
158 -106 290 -103 307 2 12 24 28 63 45 74 33 73 32 55 44 -11 8 -10 9 8 4 23
-7 113 41 159 84 12 12 25 21 28 21 8 0 59 47 115 105 109 112 164 194 155
228 -5 16 -4 18 3 8 8 -11 12 -9 22 10 7 13 17 27 22 30 5 3 10 22 11 41 1 20
5 34 8 32 5 -3 25 48 53 144 4 12 3 22 -3 22 -5 0 -12 -10 -14 -22 l-4 -23 -2
22 c0 13 8 28 19 35 24 15 26 53 4 75 -13 14 -17 14 -26 2 -8 -11 -9 -10 -4 4
7 21 -2 47 -16 47 -6 0 -7 -7 -4 -16 3 -9 2 -12 -5 -9 -6 4 -8 13 -5 21 7 18
-55 104 -71 99 -7 -2 -15 1 -19 7 -4 7 -3 8 4 4 7 -4 12 -5 12 -2 0 8 -60 95
-71 101 -14 9 -11 -9 6 -31 20 -26 19 -42 -2 -22 -9 10 -16 31 -16 48 0 16 -4
30 -9 30 -5 0 -12 10 -17 23 -5 13 -39 69 -75 124 -36 55 -66 106 -66 112 0 6
-3 11 -7 11 -9 0 -27 31 -94 155 -35 67 -52 89 -66 88 -10 -1 -12 0 -5 3 14 7
16 34 2 34 -5 0 -10 5 -10 11 0 13 -75 175 -151 324 -45 87 -60 109 -75 107
-14 -2 -16 0 -6 6 11 7 7 20 -18 61 -18 29 -35 50 -38 47 -2 -3 1 -12 8 -21 7
-9 10 -18 7 -21 -9 -9 -28 33 -22 48 3 8 -6 27 -21 44 -16 18 -24 22 -20 11 3
-11 2 -16 -5 -12 -6 4 -8 14 -5 22 8 19 -43 83 -137 176 -80 79 -112 101 -127
92 -7 -4 -10 0 -8 11 2 14 -7 22 -37 32 -58 20 -165 43 -202 44 -18 0 -33 3
-33 8 0 4 -15 10 -32 13 -18 3 -49 9 -68 12 -26 5 -31 4 -20 -4 11 -8 11 -11
2 -11 -7 0 -15 6 -18 14 -3 8 -27 17 -57 21 -29 4 -68 10 -87 15 -88 20 -92
21 -85 10 4 -7 -7 -4 -24 4 -17 9 -52 18 -77 20 -25 2 -48 7 -51 10 -3 3 -12
1 -19 -5 -9 -8 -18 -7 -31 1 -16 10 -16 10 4 5 48 -13 30 17 -34 59 -138 89
-278 143 -433 169 -98 17 -264 27 -335 20z m-128 -179 c-3 -3 -12 -4 -19 -1
-8 3 -5 6 6 6 11 1 17 -2 13 -5z m76 -1 c-7 -2 -21 -2 -30 0 -10 3 -4 5 12 5
17 0 24 -2 18 -5z m370 0 c-7 -2 -21 -2 -30 0 -10 3 -4 5 12 5 17 0 24 -2 18
-5z m-610 -30 c-7 -2 -21 -2 -30 0 -10 3 -4 5 12 5 17 0 24 -2 18 -5z m887 -3
c0 -12 -37 -12 -65 0 -15 7 -10 9 23 9 23 1 42 -3 42 -9z m-960 -10 c0 -5 -17
-10 -37 -10 -21 0 -49 -3 -63 -6 -18 -5 -22 -4 -15 4 6 6 28 12 50 15 22 2 46
4 53 5 6 1 12 -2 12 -8z m1095 -20 c-8 -13 -45 -13 -65 0 -11 7 -3 10 28 10
26 0 41 -4 37 -10z m-1238 -6 c-3 -3 -12 -4 -19 -1 -8 3 -5 6 6 6 11 1 17 -2
13 -5z m248 -4 c3 -5 -1 -10 -9 -10 -9 0 -16 5 -16 10 0 6 4 10 9 10 6 0 13
-4 16 -10z m-112 -7 c-7 -2 -19 -2 -25 0 -7 3 -2 5 12 5 14 0 19 -2 13 -5z
m994 1 c-3 -3 -12 -4 -19 -1 -8 3 -5 6 6 6 11 1 17 -2 13 -5z m313 -24 c0 -5
-4 -10 -10 -10 -5 0 -10 5 -10 10 0 6 5 10 10 10 6 0 10 -4 10 -10z m-1573
-16 c-3 -3 -12 -4 -19 -1 -8 3 -5 6 6 6 11 1 17 -2 13 -5z m33 -4 c0 -5 -2
-10 -4 -10 -3 0 -8 5 -11 10 -3 6 -1 10 4 10 6 0 11 -4 11 -10z m1655 0 c-3
-5 -24 -10 -45 -10 -21 0 -50 -4 -64 -10 -15 -5 -26 -6 -26 0 0 5 21 12 48 15
26 4 52 8 57 10 21 7 36 5 30 -5z m-1675 -19 c0 -14 -60 -22 -78 -10 -14 8
-14 9 4 4 12 -3 32 -1 45 4 13 5 25 10 27 10 1 1 2 -3 2 -8z m1765 0 c-27 -11
-85 -22 -85 -16 0 6 61 23 85 23 l20 1 -20 -8z m-98 -7 c-3 -3 -12 -4 -19 -1
-8 3 -5 6 6 6 11 1 17 -2 13 -5z m166 -11 c-7 -2 -21 -2 -30 0 -10 3 -4 5 12
5 17 0 24 -2 18 -5z m137 -23 c13 -8 13 -10 -2 -10 -9 0 -20 5 -23 10 -8 13 5
13 25 0z m55 -26 c-9 -9 -19 -13 -23 -10 -3 4 0 11 8 16 24 15 33 11 15 -6z
m72 0 c-3 -3 -12 -4 -19 -1 -8 3 -5 6 6 6 11 1 17 -2 13 -5z m-137 -14 c0 -5
-4 -10 -10 -10 -5 0 -10 5 -10 10 0 6 5 10 10 10 6 0 10 -4 10 -10z m94 -11
c-31 -12 -39 -10 -19 5 11 8 24 12 29 8 5 -3 1 -9 -10 -13z m-2249 0 c19 -9
19 -9 -2 -5 -12 2 -24 -1 -27 -8 -2 -6 -5 -3 -5 7 -1 19 5 20 34 6z m2313 -11
c-6 -26 -58 -37 -58 -12 0 11 6 14 20 9 11 -4 20 -2 20 4 0 6 5 11 10 11 6 0
9 -6 8 -12z m-68 -39 c0 -5 -7 -6 -15 -3 -8 4 -15 13 -15 21 0 13 3 13 15 3 8
-7 15 -16 15 -21z m-2305 1 c-3 -5 -13 -10 -21 -10 -8 0 -12 5 -9 10 3 6 13
10 21 10 8 0 12 -4 9 -10z m2435 0 c0 -5 -6 -10 -14 -10 -8 0 -18 5 -21 10 -3
6 3 10 14 10 12 0 21 -4 21 -10z m-2406 -25 c-6 -16 -24 -21 -24 -7 0 11 11
22 21 22 5 0 6 -7 3 -15z m2501 -5 c3 -5 1 -10 -4 -10 -6 0 -11 5 -11 10 0 6
2 10 4 10 3 0 8 -4 11 -10z m50 0 c3 -5 -1 -10 -9 -10 -9 0 -16 5 -16 10 0 6
4 10 9 10 6 0 13 -4 16 -10z m-2668 -63 c-12 -24 -16 -25 -27 -12 -10 12 -10
15 3 15 9 0 19 10 23 23 4 12 9 17 11 11 2 -6 -3 -23 -10 -37z m2343 33 c0 -5
-4 -10 -10 -10 -5 0 -10 5 -10 10 0 6 5 10 10 10 6 0 10 -4 10 -10z m99 -29
c-1 -13 -2 -13 -6 2 -5 20 -14 22 -31 5 -17 -17 -15 -28 6 -29 11 0 12 -2 4
-6 -7 -3 -19 1 -28 8 -13 10 -12 15 7 35 17 18 25 21 36 13 7 -6 12 -19 12
-28z m-2402 -3 c-3 -8 -6 -5 -6 6 -1 11 2 17 5 13 3 -3 4 -12 1 -19z m2678 13
c3 -5 1 -12 -5 -16 -5 -3 -10 1 -10 9 0 18 6 21 15 7z m-405 -11 c0 -5 -4 -10
-10 -10 -5 0 -10 5 -10 10 0 6 5 10 10 10 6 0 10 -4 10 -10z m-2350 -84 c0
-41 -11 -26 -15 20 -2 25 0 33 6 23 5 -8 9 -27 9 -43z m2270 50 c0 -3 -4 -8
-10 -11 -5 -3 -10 -1 -10 4 0 6 5 11 10 11 6 0 10 -2 10 -4z m40 -11 c0 -8 -4
-15 -10 -15 -5 0 -10 7 -10 15 0 8 5 15 10 15 6 0 10 -7 10 -15z m70 -8 c0 -2
-10 -12 -21 -23 -22 -19 -22 -19 -10 4 10 18 31 31 31 19z m470 -43 c0 -8 -4
-14 -10 -14 -5 0 -7 7 -4 15 4 8 1 15 -5 15 -6 0 -11 5 -11 11 0 8 5 8 15 -1
8 -7 15 -19 15 -26z m-2880 11 c0 -8 -4 -15 -10 -15 -5 0 -10 7 -10 15 0 8 5
15 10 15 6 0 10 -7 10 -15z m2413 -22 c-7 -2 -19 -2 -25 0 -7 3 -2 5 12 5 14
0 19 -2 13 -5z m-73 -40 c-1 -10 -39 -60 -40 -51 0 14 23 58 32 58 4 0 8 -3 8
-7z m586 -17 c0 -13 -4 -22 -8 -19 -11 6 -10 43 1 43 5 0 8 -11 7 -24z m-2999
-48 c-3 -8 -6 -5 -6 6 -1 11 2 17 5 13 3 -3 4 -12 1 -19z m4 -58 c5 0 9 5 9
12 0 6 2 9 4 7 3 -2 1 -20 -4 -39 -5 -23 -8 -27 -9 -13 -2 36 -21 38 -21 2 0
-18 -3 -30 -6 -26 -4 3 -3 28 2 54 5 31 9 40 12 26 2 -13 8 -23 13 -23z m2395
3 c-10 -10 -19 5 -10 18 6 11 8 11 12 0 2 -7 1 -15 -2 -18z m-106 13 c0 -2 -7
-19 -16 -37 -11 -25 -14 -27 -10 -9 3 14 6 31 6 38 0 6 5 12 10 12 6 0 10 -2
10 -4z m46 -54 c1 -29 -1 -39 -6 -27 -7 19 -7 19 -18 0 -14 -24 -15 -14 -3 17
5 13 12 31 15 41 8 27 11 21 12 -31z m771 -27 c-15 -16 -19 -13 -11 9 3 9 10
13 15 10 5 -3 3 -11 -4 -19z m-897 -41 c0 -14 -4 -23 -10 -19 -5 3 -10 15 -10
26 0 10 5 19 10 19 6 0 10 -12 10 -26z m33 6 c-3 -11 -7 -20 -9 -20 -2 0 -4 9
-4 20 0 11 4 20 9 20 5 0 7 -9 4 -20z m947 -86 c0 -8 7 -17 15 -20 8 -4 15
-10 15 -16 0 -5 -4 -7 -9 -3 -5 3 -12 1 -16 -5 -3 -5 -11 -10 -16 -10 -6 0 -7
6 -2 13 10 17 4 59 -12 76 -11 12 -13 7 -8 -28 3 -22 2 -41 -3 -41 -5 0 -9 17
-8 38 2 79 2 80 24 44 11 -18 20 -39 20 -48z m-963 14 c-3 -7 -5 -2 -5 12 0
14 2 19 5 13 2 -7 2 -19 0 -25z m-30 -40 c-2 -13 -4 -5 -4 17 -1 22 1 32 4 23
2 -10 2 -28 0 -40z m60 -55 c-3 -10 -5 -2 -5 17 0 19 2 27 5 18 2 -10 2 -26 0
-35z m-43 12 c-4 -8 -8 -15 -10 -15 -2 0 -4 7 -4 15 0 8 4 15 10 15 5 0 7 -7
4 -15z m1024 -85 c0 -22 -1 -22 -8 5 -4 17 -8 39 -8 50 0 16 2 15 8 -5 4 -14
8 -36 8 -50z m-991 -37 c-2 -16 -4 -5 -4 22 0 28 2 40 4 28 2 -13 2 -35 0 -50z
m-50 25 c-3 -7 -5 -2 -5 12 0 14 2 19 5 13 2 -7 2 -19 0 -25z m1070 -15 c-3
-10 -5 -2 -5 17 0 19 2 27 5 18 2 -10 2 -26 0 -35z m-17 -23 c0 -5 -5 -10 -11
-10 -5 0 -7 5 -4 10 3 6 8 10 11 10 2 0 4 -4 4 -10z m99 -132 c1 -5 -3 -8 -9
-8 -5 0 -10 12 -9 28 0 24 1 25 9 7 5 -11 9 -23 9 -27z m-2656 -45 c-7 -2 -19
-2 -25 0 -7 3 -2 5 12 5 14 0 19 -2 13 -5z m607 -3 c0 -5 14 -10 32 -10 17 0
29 -3 25 -6 -3 -3 -29 -3 -58 1 -35 5 -47 10 -38 16 19 12 39 11 39 -1z m-357
-7 c-24 -2 -62 -2 -85 0 -24 2 -5 4 42 4 47 0 66 -2 43 -4z m-290 -10 c-7 -2
-19 -2 -25 0 -7 3 -2 5 12 5 14 0 19 -2 13 -5z m80 0 c-7 -2 -21 -2 -30 0 -10
3 -4 5 12 5 17 0 24 -2 18 -5z m477 -8 l85 -14 -75 7 c-41 4 -147 6 -235 6
l-160 -1 120 7 c66 3 134 7 150 7 17 1 68 -5 115 -12z m2195 -23 c-8 -8 -25
10 -25 26 0 13 2 13 14 -4 8 -10 13 -21 11 -22z m-2028 12 c-3 -3 -12 -4 -19
-1 -8 3 -5 6 6 6 11 1 17 -2 13 -5z m-1440 -26 c-3 -8 -6 -5 -6 6 -1 11 2 17
5 13 3 -3 4 -12 1 -19z m476 -15 c-7 -2 -19 -2 -25 0 -7 3 -2 5 12 5 14 0 19
-2 13 -5z m1204 1 c-3 -3 -12 -4 -19 -1 -8 3 -5 6 6 6 11 1 17 -2 13 -5z m163
-2 c0 -4 -19 -6 -41 -4 -27 3 -39 1 -35 -6 4 -6 -2 -8 -16 -4 -21 5 -21 6 -2
13 25 10 94 11 94 1z m-1447 -9 c-7 -2 -19 -2 -25 0 -7 3 -2 5 12 5 14 0 19
-2 13 -5z m1527 -1 c0 -4 -16 -6 -35 -4 -19 2 -35 6 -35 8 0 2 16 4 35 4 19 0
35 -4 35 -8z m1570 -22 c12 -23 12 -24 -3 -11 -10 7 -17 20 -17 29 0 18 3 16
20 -18z m-1607 -7 c-7 -2 -21 -2 -30 0 -10 3 -4 5 12 5 17 0 24 -2 18 -5z
m144 -39 c-3 -3 -12 -4 -19 -1 -8 3 -5 6 6 6 11 1 17 -2 13 -5z m106 -1 c-7
-2 -19 -2 -25 0 -7 3 -2 5 12 5 14 0 19 -2 13 -5z m-2113 -13 c0 -5 -2 -10 -4
-10 -3 0 -8 5 -11 10 -3 6 -1 10 4 10 6 0 11 -4 11 -10z m2113 -17 c-7 -2 -19
-2 -25 0 -7 3 -2 5 12 5 14 0 19 -2 13 -5z m1421 -19 c9 -24 7 -27 -9 -10 -17
17 -19 26 -6 26 5 0 12 -7 15 -16z m-1294 -40 c0 -2 -7 -4 -15 -4 -8 0 -15 4
-15 10 0 5 7 7 15 4 8 -4 15 -8 15 -10z m60 -14 c0 -5 -7 -10 -16 -10 -8 0
-12 5 -9 10 3 6 10 10 16 10 5 0 9 -4 9 -10z m1287 -42 c-3 -8 -6 -5 -6 6 -1
11 2 17 5 13 3 -3 4 -12 1 -19z m-1203 -23 c11 -8 16 -18 13 -22 -4 -3 -16 3
-27 15 -23 25 -15 29 14 7z m1217 -18 c-8 -8 -11 -7 -11 4 0 9 3 19 7 23 4 4
9 2 11 -4 3 -7 -1 -17 -7 -23z m-1141 13 c0 -5 -7 -10 -15 -10 -8 0 -15 5 -15
10 0 6 7 10 15 10 8 0 15 -4 15 -10z m1164 -44 c-3 -9 -10 -16 -15 -16 -6 0
-5 9 1 21 13 24 24 20 14 -5z m-1169 4 c3 -5 -1 -10 -9 -10 -8 0 -18 5 -21 10
-3 6 1 10 9 10 8 0 18 -4 21 -10z m1212 -82 c-3 -8 -6 -5 -6 6 -1 11 2 17 5
13 3 -3 4 -12 1 -19z m-1110 -24 c-3 -3 -12 -4 -19 -1 -8 3 -5 6 6 6 11 1 17
-2 13 -5z m47 -46 c11 -42 7 -55 -9 -34 -16 22 -20 56 -6 56 5 0 11 -10 15
-22z m1170 -107 c-5 -5 -33 30 -34 43 0 4 9 -2 19 -15 11 -13 17 -26 15 -28z
m64 -41 c-7 -10 -14 -18 -15 -16 -6 6 9 36 18 36 5 0 4 -9 -3 -20z m-1158 -91
c0 -10 -4 -21 -10 -24 -6 -3 -10 5 -10 19 0 13 -3 33 -6 43 -5 16 -4 16 10 -1
9 -11 16 -28 16 -37z m17 -81 c-3 -7 -5 -2 -5 12 0 14 2 19 5 13 2 -7 2 -19 0
-25z m1224 -69 c-6 -16 -10 -18 -10 -7 -1 22 12 55 16 42 2 -6 -1 -22 -6 -35z
m-4 -81 c-3 -8 -6 -5 -6 6 -1 11 2 17 5 13 3 -3 4 -12 1 -19z m-1167 -24 c0
-14 -4 -23 -9 -19 -11 6 -10 45 1 45 4 0 8 -12 8 -26z m27 -6 c-3 -7 -5 -2 -5
12 0 14 2 19 5 13 2 -7 2 -19 0 -25z m-4 -64 c5 -30 -8 -20 -18 15 -4 15 -3
21 3 17 5 -3 12 -17 15 -32z m1117 -4 c0 -5 -5 -10 -11 -10 -5 0 -7 5 -4 10 3
6 8 10 11 10 2 0 4 -4 4 -10z m-117 -112 c3 -10 9 -10 26 0 22 13 22 12 5 -13
-20 -31 -26 -31 -41 0 -6 14 -7 25 -3 25 5 0 10 -6 13 -12z m-21 -48 c3 -16 1
-35 -4 -42 -4 -8 -8 4 -8 30 0 49 6 55 12 12z m-905 -52 c-3 -7 -5 -2 -5 12 0
14 2 19 5 13 2 -7 2 -19 0 -25z m12 -93 c0 -11 -6 -2 -14 20 -18 50 -18 57 0
25 8 -14 14 -34 14 -45z m826 25 c-10 -11 -21 -17 -24 -14 -3 3 3 12 13 20 28
20 32 17 11 -6z m-68 -66 c-3 -3 -12 -4 -19 -1 -8 3 -5 6 6 6 11 1 17 -2 13
-5z m-47 -24 c-8 -5 -17 -7 -19 -4 -3 3 1 9 9 14 8 5 17 7 19 4 3 -3 -1 -9 -9
-14z m-36 -35 c-3 -8 -26 -26 -51 -40 -51 -28 -53 -29 -53 -15 0 6 7 10 16 10
10 0 14 5 10 15 -4 12 0 14 19 9 17 -4 27 0 37 15 15 24 30 28 22 6z m-624
-30 c0 -8 -4 -15 -10 -15 -5 0 -10 7 -10 15 0 8 5 15 10 15 6 0 10 -7 10 -15z
m27 -62 c-3 -10 -5 -2 -5 17 0 19 2 27 5 18 2 -10 2 -26 0 -35z m376 -10 c-7
-2 -19 -2 -25 0 -7 3 -2 5 12 5 14 0 19 -2 13 -5z m-374 -73 c0 -9 -6 -4 -14
10 -8 14 -14 34 -14 45 1 15 4 13 14 -10 8 -16 14 -37 14 -45z m357 42 c-10
-2 -22 0 -28 6 -6 6 0 7 19 4 21 -5 23 -7 9 -10z m-152 -67 c28 -8 13 -17 -17
-10 -14 4 -28 13 -31 21 -4 10 -1 11 12 5 9 -5 26 -12 36 -16z m60 4 c-8 -13
-21 -11 -27 5 -4 10 0 12 14 9 10 -3 16 -9 13 -14z m43 15 c-3 -3 -12 -4 -19
-1 -8 3 -5 6 6 6 11 1 17 -2 13 -5z m-212 -14 c3 -5 1 -10 -4 -10 -6 0 -11 5
-11 10 0 6 2 10 4 10 3 0 8 -4 11 -10z m62 -26 c-3 -3 -12 -4 -19 -1 -8 3 -5
6 6 6 11 1 17 -2 13 -5z"/>
<path d="M13819 8983 c-14 -16 -31 -37 -39 -48 -12 -17 -10 -16 9 2 48 48 70
73 62 73 -4 0 -18 -12 -32 -27z"/>
<path d="M13872 8937 c-37 -87 -82 -214 -81 -230 0 -7 17 35 38 93 21 58 48
127 60 154 12 27 20 50 18 52 -2 2 -17 -29 -35 -69z"/>
<path d="M13741 8855 c-12 -31 -21 -66 -20 -78 0 -12 7 2 15 31 7 29 19 62 25
73 6 12 8 23 6 26 -3 2 -14 -21 -26 -52z"/>
<path d="M13712 8675 c-1 -74 18 -218 30 -231 3 -3 11 32 17 77 7 44 10 83 7
86 -2 3 -8 -23 -12 -58 -6 -54 -8 -59 -16 -39 -6 14 -13 75 -17 135 -8 107 -8
108 -9 30z"/>
<path d="M13775 8660 c-4 -17 -5 -34 -2 -36 2 -3 7 10 11 27 8 42 0 50 -9 9z"/>
<path d="M10963 8605 c0 -27 2 -38 4 -22 2 15 2 37 0 50 -2 12 -4 0 -4 -28z"/>
<path d="M11005 8610 c19 -74 23 -85 24 -64 1 12 -6 37 -15 55 -10 22 -13 25
-9 9z"/>
<path d="M10972 8408 c-1 -76 2 -138 7 -138 11 0 51 93 50 117 0 13 -2 14 -5
3 -3 -8 -13 -35 -22 -60 l-17 -45 -5 130 -6 130 -2 -137z"/>
<path d="M11033 8465 c0 -33 2 -45 4 -27 2 18 2 45 0 60 -2 15 -4 0 -4 -33z"/>
<path d="M8035 7998 c-12 -40 -21 -235 -12 -256 25 -55 -74 -52 1776 -52
l1709 0 7 63 c4 34 13 103 21 152 8 50 14 93 14 98 0 4 -790 7 -1755 7 -1396
0 -1756 -3 -1760 -12z"/>
<path d="M13166 7983 c-11 -55 -38 -209 -43 -251 l-6 -43 357 3 358 3 28 31
c23 27 28 43 34 110 4 44 9 100 12 127 l6 47 -370 0 -370 0 -6 -27z"/>
<path d="M14266 6573 l-608 -3 6 -33 c18 -89 111 -241 225 -368 l72 -79 -357
0 c-312 0 -355 -2 -344 -15 32 -38 293 -116 540 -161 129 -23 154 -24 541 -24
392 0 410 1 545 26 263 48 437 98 519 149 l40 24 -225 1 -225 1 50 18 c100 36
144 68 187 135 28 43 32 58 32 117 0 65 -2 71 -34 104 -29 30 -40 35 -79 35
-45 0 -98 -10 -133 -25 -17 -7 -17 -4 -3 35 25 70 24 70 -62 68 -43 -2 -352
-4 -687 -5z m928 -181 c19 -66 -29 -154 -106 -193 -74 -38 -288 -67 -288 -40
0 6 19 31 42 58 23 26 56 71 75 100 18 29 43 58 55 64 53 28 126 49 168 46 41
-2 45 -5 54 -35z"/>
<path d="M2447 6090 c-33 -113 -136 -529 -157 -632 l-22 -108 45 -82 c24 -46
56 -103 69 -128 31 -56 74 -134 123 -225 21 -38 42 -71 47 -73 4 -2 8 -10 8
-18 0 -7 8 -28 18 -46 18 -32 74 -134 154 -283 21 -38 64 -121 95 -183 32 -62
59 -109 61 -104 1 4 -34 156 -78 337 -71 290 -110 459 -215 945 -14 63 -49
237 -79 385 l-53 270 -16 -55z"/>
<path d="M15791 6047 c-21 -77 -129 -510 -151 -605 -13 -53 -13 -119 -1 -127
5 -3 31 -47 57 -98 52 -101 82 -157 94 -172 4 -5 30 -53 57 -105 60 -114 103
-191 113 -205 4 -5 36 -64 70 -130 34 -66 74 -140 88 -165 14 -25 48 -89 75
-143 27 -54 51 -96 53 -95 1 2 -17 82 -42 178 -24 96 -55 227 -70 290 -15 63
-35 151 -45 195 -64 271 -190 863 -236 1110 -14 77 -29 143 -32 147 -4 5 -17
-29 -30 -75z"/>
<path d="M10320 6060 c-47 -10 -148 -38 -225 -63 -159 -51 -283 -83 -370 -96
-38 -5 170 -9 573 -10 l633 -1 -18 31 c-36 62 -154 127 -267 148 -87 16 -229
12 -326 -9z"/>
<path d="M11235 6074 c-88 -21 -116 -30 -158 -51 -49 -24 -137 -103 -137 -123
0 -7 206 -10 633 -9 551 1 622 3 552 14 -93 15 -214 45 -300 75 -33 12 -116
37 -185 56 -107 31 -144 36 -255 39 -71 2 -139 2 -150 -1z"/>
<path d="M14062 3653 c80 -380 204 -776 303 -974 113 -223 205 -287 467 -324
138 -20 133 -21 98 25 -63 84 -87 117 -120 165 -19 28 -36 52 -40 55 -3 3 -17
21 -30 40 -13 19 -27 37 -30 40 -13 11 -150 221 -150 229 0 5 -4 11 -8 13 -9
3 -112 155 -112 165 0 3 -9 17 -19 32 -20 28 -209 331 -244 391 -58 100 -90
159 -105 192 -9 21 -20 38 -23 38 -3 0 3 -39 13 -87z"/>
<path d="M8236 2723 c2 -49 9 -342 15 -653 6 -311 14 -655 18 -765 l6 -200 55
-8 c83 -12 624 -76 626 -74 1 1 32 92 70 202 l69 200 22 -200 c12 -110 22
-205 22 -212 1 -11 147 -31 156 -21 4 4 -220 1034 -275 1263 -10 44 -30 134
-45 200 -14 66 -38 173 -52 238 l-27 117 -332 0 -333 0 5 -87z"/>
<path d="M7768 2142 c-26 -114 -81 -358 -123 -542 -41 -184 -77 -345 -80 -356
-5 -20 2 -23 108 -43 197 -36 239 -42 244 -37 7 6 -90 1186 -97 1186 -3 0 -26
-93 -52 -208z"/>
<path d="M15718 1843 c7 -3 16 -2 19 1 4 3 -2 6 -13 5 -11 0 -14 -3 -6 -6z"/>
</g>
</svg>
