<?xml version="1.0" standalone="no"?>
<!DOCTYPE svg PUBLIC "-//W3C//DTD SVG 20010904//EN"
 "http://www.w3.org/TR/2001/REC-SVG-20010904/DTD/svg10.dtd">
<svg version="1.0" xmlns="http://www.w3.org/2000/svg"
 width="1182.000000pt" height="568.000000pt" viewBox="0 0 1182.000000 568.000000"
 preserveAspectRatio="xMidYMid meet">
<metadata>
Created by potrace 1.16, written by Peter Selinger 2001-2019
</metadata>
<g transform="translate(0.000000,568.000000) scale(0.100000,-0.100000)"
fill="#000000" stroke="none">
<path d="M0 2840 l0 -2840 5910 0 5910 0 0 2840 0 2840 -5910 0 -5910 0 0
-2840z m3086 2531 c32 -11 275 -90 539 -176 264 -86 566 -185 670 -219 229
-76 613 -202 750 -246 55 -18 106 -37 113 -42 9 -8 12 -132 12 -559 l0 -549
-32 -20 c-61 -37 26 -61 -1168 330 -421 138 -817 266 -880 286 -63 19 -134 44
-158 54 l-42 19 2 558 3 557 25 13 c36 18 97 16 166 -6z m2793 -122 c102 -34
215 -71 251 -84 l65 -23 3 -105 3 -104 57 -18 c187 -56 331 -108 336 -121 14
-37 6 -136 -15 -177 -27 -54 -78 -107 -102 -107 -10 0 -80 20 -155 44 -303 98
-439 136 -484 136 -25 0 -70 9 -100 19 -29 11 -146 49 -260 85 -152 49 -211
72 -222 88 -18 26 -7 54 30 70 23 11 24 14 24 123 l0 112 178 61 c97 33 183
61 191 61 8 1 98 -27 200 -60z m1671 -839 c16 -9 19 -18 13 -55 -7 -51 6 -59
31 -20 18 28 53 33 63 9 3 -8 -4 -25 -17 -39 -20 -22 -21 -25 -6 -48 21 -31
14 -47 -37 -88 -66 -52 -166 -149 -207 -201 l-38 -47 -6 77 c-8 89 4 164 29
192 10 11 16 21 14 23 -2 2 -17 11 -32 21 -31 19 -41 40 -51 104 l-6 42 42 0
c24 0 72 9 108 19 79 24 77 23 100 11z m-619 -111 c134 -44 246 -82 247 -84 2
-2 -14 -13 -35 -23 -63 -33 -121 -105 -173 -216 -26 -55 -50 -109 -54 -119 -7
-23 -33 -19 -206 25 -205 54 -196 52 -230 38 -35 -15 -68 -56 -54 -69 15 -15
195 -79 316 -113 87 -24 134 -32 201 -32 l88 -1 -8 -55 c-4 -30 -7 -165 -8
-300 0 -135 -4 -280 -9 -322 l-9 -78 44 -1 c135 -1 231 1 239 6 5 3 12 27 16
53 3 26 15 67 25 92 10 25 28 74 40 109 l23 65 29 -115 c15 -63 31 -136 35
-164 l7 -50 120 -42 c149 -52 175 -75 175 -158 0 -30 5 -55 10 -55 12 0 12 57
0 200 -10 124 16 420 36 420 8 0 18 49 30 140 17 136 18 140 42 140 13 0 36
13 51 28 30 29 45 91 61 240 4 40 10 75 13 78 3 3 203 -60 445 -141 373 -124
444 -151 468 -176 l29 -30 -22 -42 c-65 -130 -144 -299 -141 -302 1 -2 84 -29
183 -60 99 -31 245 -78 325 -104 l145 -48 3 -304 c2 -277 1 -305 -15 -316 -30
-23 -72 -14 -307 62 -601 194 -608 196 -622 184 -8 -6 -14 -16 -14 -22 0 -6
-19 -48 -41 -92 l-42 -81 27 -27 c14 -14 26 -34 26 -44 -1 -61 -30 -81 -185
-129 l-90 -28 45 -13 c24 -7 51 -20 60 -29 13 -14 13 -17 -7 -33 -12 -10 -54
-28 -95 -41 -40 -12 -165 -53 -278 -90 -113 -38 -244 -81 -293 -96 -48 -16
-86 -33 -84 -38 2 -6 46 -23 97 -38 l94 -27 94 31 94 30 167 -52 c91 -29 234
-74 316 -101 83 -27 153 -49 158 -49 4 0 1 11 -8 24 -12 18 -13 25 -3 33 16
13 327 113 349 113 10 0 20 -11 23 -25 4 -14 12 -25 19 -25 6 0 109 31 227 68
118 38 257 82 309 98 51 16 95 34 98 40 2 6 -5 27 -17 47 -12 21 -17 38 -11
41 24 15 325 116 345 116 16 0 27 -11 41 -42 19 -40 22 -43 55 -40 22 2 85
-13 160 -37 69 -23 126 -41 128 -41 1 0 2 7 2 15 0 23 26 18 48 -10 12 -15 30
-25 45 -25 30 0 57 -9 57 -19 0 -4 -33 -14 -72 -21 -40 -7 -68 -14 -63 -16 6
-1 23 -5 38 -8 19 -5 37 -22 57 -53 46 -72 41 -88 -32 -121 -35 -16 -74 -38
-87 -49 l-24 -20 79 -6 c44 -3 109 -2 144 3 35 5 66 7 69 4 3 -2 -1 -30 -8
-62 -7 -31 -15 -78 -18 -103 l-5 -46 48 -12 c85 -21 387 -121 402 -134 8 -6
24 -16 36 -22 11 -6 25 -20 31 -33 7 -16 32 -29 90 -48 44 -15 85 -31 91 -35
16 -13 34 -112 34 -188 -1 -74 -18 -157 -46 -214 -21 -45 9 -27 -544 -320
-225 -119 -435 -227 -441 -227 -7 0 -525 169 -876 286 -217 72 -224 74 -295
68 -71 -6 -81 -4 -278 59 -113 37 -335 107 -495 157 -159 50 -309 98 -333 107
-72 25 -91 83 -39 118 25 16 358 125 383 125 12 0 14 15 12 86 l-3 86 -120 42
c-116 40 -120 42 -120 70 0 29 1 30 193 92 105 34 215 68 243 74 l51 13 -193
62 c-296 96 -395 125 -418 125 -11 0 -54 -11 -95 -25 -41 -14 -83 -25 -92 -25
-10 0 -64 14 -121 31 -98 31 -126 50 -104 72 8 8 304 109 621 211 116 37 149
51 140 59 -3 2 -29 13 -57 24 l-52 19 -193 -62 c-106 -35 -301 -97 -433 -139
-132 -42 -321 -103 -420 -136 -342 -111 -351 -113 -460 -113 l-100 0 -450 152
c-247 84 -484 164 -525 177 -41 12 -158 51 -259 86 l-184 62 -131 -44 c-88
-30 -131 -50 -131 -59 0 -10 60 -35 195 -80 l195 -65 0 -30 0 -30 -220 -68
c-321 -99 -318 -98 -329 -87 -6 6 -7 10 -4 10 3 0 113 34 244 75 132 41 246
75 255 75 21 0 32 25 16 38 -7 5 -95 37 -197 70 -177 57 -185 61 -188 87 -4
34 -1 37 123 75 55 18 108 35 118 38 11 5 -111 50 -340 126 -483 161 -505 169
-526 206 -16 26 -16 34 -5 57 19 38 49 52 283 127 116 37 285 92 377 121 136
45 172 53 193 45 36 -14 42 -12 19 5 -10 8 -14 15 -9 15 6 0 9 47 7 128 -3
123 -2 131 24 187 51 108 154 183 319 234 108 34 197 31 325 -12 58 -19 127
-38 154 -41 60 -7 116 -46 116 -81 0 -14 8 -29 19 -35 18 -9 24 0 66 88 25 53
50 105 55 115 22 39 31 58 94 187 l66 135 -38 6 c-36 5 -111 46 -112 62 0 4
39 8 88 8 48 1 79 3 70 6 -32 8 -21 33 15 33 32 0 33 2 122 183 129 262 123
260 496 136z m-5397 -110 c55 -17 196 -62 311 -99 116 -37 292 -94 393 -126
l182 -58 0 -248 0 -248 -25 -12 c-27 -12 -57 -4 -435 117 -397 127 -367 119
-395 101 -14 -9 -25 -21 -25 -26 0 -11 -40 -13 -64 -4 -12 5 -9 11 14 31 17
14 30 28 30 32 0 4 -34 18 -75 31 l-75 24 0 247 c0 307 -11 291 164 238z
m5666 -284 c76 -26 108 -32 78 -14 -17 9 -26 39 -12 39 12 0 92 -51 109 -70
17 -19 17 -20 -7 -29 -14 -5 -32 -17 -41 -25 -15 -15 -23 -14 -98 11 -46 15
-86 35 -89 43 -4 8 -12 25 -18 37 -22 41 -20 41 78 8z m-5769 -287 c23 -26 24
-47 4 -54 -8 -4 -15 -14 -15 -24 0 -20 -55 -35 -84 -24 -19 7 -21 23 -3 29 74
26 73 26 53 41 -16 11 -17 14 -4 14 11 0 15 6 11 20 -7 27 15 26 38 -2z m275
-308 c22 0 68 -42 57 -53 -15 -16 -59 -5 -139 34 -46 23 -84 46 -84 50 0 4 8
12 17 18 13 7 32 2 73 -20 30 -16 64 -29 76 -29z m-309 -68 c132 6 129 9 113
-98 -13 -95 -13 -134 3 -134 14 0 227 -66 317 -98 30 -10 96 -32 145 -47 50
-16 97 -34 105 -41 54 -45 72 -67 67 -83 -4 -16 30 -30 247 -101 138 -45 255
-86 260 -91 13 -12 -12 -84 -38 -107 -13 -12 -125 -47 -286 -92 l-265 -72 -50
16 c-27 9 -111 35 -185 60 -399 129 -383 124 -435 119 -42 -4 -75 3 -180 37
-400 129 -562 184 -582 196 -32 20 -32 78 0 99 20 13 392 137 544 181 l51 15
4 51 c1 28 -2 76 -9 107 -6 31 -12 66 -12 78 -1 20 1 21 37 11 21 -6 85 -8
149 -6z m1552 -653 c-33 -24 -38 -14 -8 17 15 16 25 21 28 13 2 -6 -7 -20 -20
-30z m191 24 c0 -3 -7 -14 -16 -24 -15 -16 -14 -17 8 -12 22 5 22 4 -8 -28
-49 -54 -63 -83 -52 -103 6 -11 6 -21 -1 -30 -8 -9 -7 -17 2 -29 17 -24 127
-41 175 -27 24 6 38 6 40 0 2 -6 14 -10 27 -10 29 0 55 -10 55 -20 0 -17 -60
-24 -179 -21 -94 3 -125 0 -132 -10 -11 -19 -133 -16 -197 5 -46 16 -51 20
-42 37 6 10 24 26 40 34 23 12 30 23 30 44 0 20 7 31 25 39 16 7 23 17 19 27
-3 8 -1 15 4 15 6 0 18 7 26 15 11 12 20 13 34 6 21 -11 42 3 42 28 0 12 -3
12 -12 3 -14 -14 -52 -16 -43 -3 3 5 1 12 -5 16 -17 11 -11 25 16 35 18 7 30
7 39 0 9 -7 24 -6 51 4 47 17 54 18 54 9z m520 -333 c0 -16 -9 -39 -19 -49
-13 -13 -16 -21 -8 -24 7 -2 -18 -7 -55 -11 -37 -4 -71 -5 -76 -2 -5 3 -7 17
-4 31 4 23 9 25 45 23 31 -2 42 1 42 12 0 8 7 15 15 15 8 0 23 8 33 18 23 23
27 22 27 -13z m-1713 -25 c-7 -16 -47 -40 -47 -27 0 17 44 65 48 53 2 -6 1
-18 -1 -26z m1558 15 c3 -5 2 -10 -4 -10 -5 0 -13 5 -16 10 -3 6 -2 10 4 10 5
0 13 -4 16 -10z m-1463 -23 c13 2 33 10 45 16 30 14 42 1 17 -19 -18 -15 -18
-15 4 -9 31 9 28 0 -22 -58 -39 -46 -44 -57 -41 -95 1 -24 6 -47 11 -51 19
-18 140 -31 174 -19 24 8 35 8 38 0 6 -18 124 27 155 59 24 25 36 29 83 29 53
0 54 1 54 29 0 37 8 42 113 78 86 30 88 30 98 11 16 -30 70 -48 181 -58 108
-10 133 -21 170 -70 23 -32 46 -37 96 -19 37 13 58 43 68 95 13 72 47 88 59
27 11 -58 22 -71 73 -86 l47 -14 3 -57 c3 -56 4 -58 40 -73 52 -22 167 -21
212 2 47 23 71 45 63 58 -3 6 21 8 67 5 45 -2 75 -9 78 -16 2 -7 18 -12 35
-13 31 0 84 -17 61 -18 -8 -1 -6 -13 5 -36 14 -30 25 -38 79 -55 35 -11 68
-17 73 -14 16 10 10 24 -11 24 -11 0 -20 6 -20 12 0 7 -18 29 -40 49 -39 36
-39 37 -33 90 4 36 13 61 27 74 12 11 32 34 44 50 21 27 30 30 75 29 29 0 79
-4 112 -10 57 -9 60 -10 62 -39 3 -50 -6 -75 -27 -75 -30 0 -24 -14 10 -27 21
-8 36 -24 46 -49 15 -37 15 -39 -5 -55 -12 -10 -21 -23 -21 -31 0 -24 110 -81
157 -82 24 -1 43 -5 43 -10 0 -5 7 -17 15 -26 14 -16 13 -18 -22 -23 -25 -4
-42 -2 -53 7 -27 24 -117 45 -168 39 -29 -3 -73 1 -115 12 -62 15 -70 16 -92
1 -13 -9 -40 -16 -59 -16 -44 0 -86 -19 -86 -38 0 -12 10 -14 53 -9 45 6 54 4
65 -13 21 -34 69 -50 179 -61 115 -11 141 -21 169 -69 21 -35 56 -40 104 -15
34 18 48 40 64 104 7 30 17 47 29 49 12 2 17 -3 17 -18 0 -36 41 -65 125 -88
133 -36 279 -86 305 -105 17 -12 25 -27 25 -48 l0 -31 230 -74 c126 -41 234
-79 239 -84 6 -6 12 -38 14 -73 9 -134 -64 -299 -186 -425 -67 -68 -78 -72
-482 -190 -113 -33 -268 -78 -345 -101 l-141 -42 -209 70 c-116 38 -376 123
-580 189 -369 120 -370 120 -446 115 -83 -6 -48 -15 -464 116 -104 33 -244 76
-310 96 -66 20 -187 58 -270 84 -82 27 -269 86 -415 131 -480 150 -663 209
-686 225 -16 10 -24 25 -24 45 0 46 62 81 256 144 217 70 204 64 204 91 0 24
3 25 120 66 36 13 67 27 68 31 2 5 21 31 43 58 21 27 39 53 39 57 0 4 14 16
30 25 21 12 30 25 30 43 0 14 7 28 16 32 8 3 20 16 25 29 4 13 14 24 21 24 20
0 40 50 27 66 -8 9 -3 16 18 27 23 13 29 13 35 2 5 -7 18 -11 30 -8z m1636
-73 c12 -8 22 -26 22 -38 0 -60 12 -87 41 -93 34 -7 39 -37 9 -53 -28 -15 -97
-1 -129 26 -27 22 -51 80 -51 123 0 15 10 26 33 36 41 18 48 18 75 -1z m6819
-241 c-3 -10 -5 -4 -5 12 0 17 2 24 5 18 2 -7 2 -21 0 -30z m-3987 -632 l165
-57 3 -112 c2 -71 7 -112 13 -112 6 0 23 -13 38 -29 21 -22 59 -38 176 -74
256 -79 289 -91 302 -118 23 -44 16 -128 -16 -194 -35 -71 -83 -125 -110 -125
-20 0 -346 100 -687 211 -126 41 -197 59 -233 59 -72 0 -411 112 -430 142 -16
25 0 63 30 71 17 5 19 16 19 121 l0 116 28 6 c15 4 124 40 242 80 124 42 232
73 255 73 23 0 110 -25 205 -58z"/>
<path d="M4258 4710 c-2 -35 1 -50 10 -50 8 0 12 16 12 44 0 62 -17 67 -22 6z"/>
<path d="M4190 4725 c0 -17 -6 -25 -17 -26 -15 0 -15 -2 2 -9 32 -14 35 -12
35 25 0 19 -4 35 -10 35 -5 0 -10 -11 -10 -25z"/>
<path d="M4413 4670 c0 -36 2 -50 4 -32 2 17 2 47 0 65 -2 17 -4 3 -4 -33z"/>
<path d="M4076 4411 c-18 -7 -16 -9 12 -19 l32 -11 0 -130 0 -130 30 10 30 11
0 129 0 129 -26 10 c-29 12 -51 12 -78 1z"/>
<path d="M4520 4240 l-25 -7 28 -11 c27 -11 27 -13 27 -102 0 -49 4 -90 9 -90
36 0 41 12 41 100 0 87 -5 100 -40 112 -8 2 -26 2 -40 -2z"/>
<path d="M5618 5197 c-32 -11 -58 -24 -58 -27 0 -6 127 -50 143 -50 4 0 7 23
7 50 0 59 -4 60 -92 27z"/>
<path d="M5747 3392 c-10 -10 -17 -30 -17 -43 l0 -25 68 17 c37 10 78 18 92
19 17 1 2 10 -44 26 -84 29 -79 28 -99 6z"/>
<path d="M5573 3376 c-130 -49 -225 -140 -239 -232 -11 -74 5 -224 27 -261 19
-31 73 -58 151 -77 l27 -6 -19 42 c-28 61 -28 244 -1 304 20 44 80 108 123
130 23 12 27 21 30 69 4 65 -2 67 -99 31z"/>
<path d="M5986 3089 c-33 -26 -32 -62 1 -67 46 -7 107 47 88 78 -11 17 -61 11
-89 -11z"/>
<path d="M6129 3023 c-13 -14 -40 -33 -60 -44 -20 -10 -39 -25 -42 -33 -11
-27 -124 -103 -204 -137 -69 -29 -90 -33 -178 -35 -55 -2 -134 -5 -175 -9 -65
-6 -85 -3 -149 19 -69 24 -91 26 -91 7 0 -9 99 -41 128 -41 12 0 22 -4 22 -8
0 -5 28 -17 63 -27 34 -9 76 -23 92 -30 57 -24 105 -36 115 -30 5 3 10 2 10
-4 0 -9 89 -43 120 -46 9 0 21 -4 28 -9 20 -12 663 -226 680 -226 9 0 35 -9
58 -20 23 -12 60 -24 81 -27 21 -3 40 -9 43 -13 7 -10 100 -40 122 -40 10 0
18 -4 18 -9 0 -4 30 -16 68 -25 37 -10 76 -22 87 -27 44 -20 108 -39 115 -34
5 3 11 1 14 -4 4 -5 28 -17 54 -25 43 -15 53 -15 91 -1 23 8 49 21 57 30 14
13 9 15 -43 15 -41 0 -94 12 -183 42 -103 34 -132 48 -164 80 -21 21 -58 47
-83 58 -54 24 -82 78 -83 161 l0 55 -57 40 c-32 21 -70 58 -86 80 -34 48 -32
80 9 139 28 42 30 49 9 41 -8 -3 -15 -1 -15 3 0 11 -85 41 -117 41 -13 0 -23
4 -23 8 0 10 -98 42 -128 42 -12 0 -22 4 -22 8 0 5 -28 17 -62 26 -35 10 -70
22 -79 26 -12 6 -23 2 -40 -17z"/>
<path d="M5080 2860 c-10 -6 -11 -12 -5 -18 18 -17 84 -34 105 -27 17 6 13 10
-27 31 -55 27 -53 27 -73 14z"/>
<path d="M7401 2740 c-72 -26 -144 -83 -170 -135 -30 -60 -30 -205 0 -254 20
-33 21 -33 79 -29 81 6 195 63 249 125 l41 46 0 118 c0 110 -1 119 -22 133
-30 21 -110 19 -177 -4z m104 -140 c8 -7 15 -22 15 -34 0 -68 -118 -122 -178
-80 -44 31 -19 95 48 123 30 13 95 7 115 -9z"/>
<path d="M7732 2458 c-35 -77 -144 -166 -264 -214 -47 -19 -62 -34 -33 -34 8
0 38 9 67 19 29 10 67 22 83 26 17 3 44 12 60 19 17 7 56 21 88 30 41 12 57
22 53 31 -3 9 8 18 32 26 20 6 41 15 45 19 5 4 23 3 41 -2 39 -12 121 10 121
32 0 15 -66 41 -107 42 -16 1 -28 4 -28 9 0 9 -87 39 -116 39 -17 0 -28 -11
-42 -42z"/>
<path d="M7998 2273 c7 -3 16 -2 19 1 4 3 -2 6 -13 5 -11 0 -14 -3 -6 -6z"/>
<path d="M9812 1976 l-154 -52 61 -21 61 -21 93 31 c50 17 94 35 95 39 2 4 16
8 31 8 14 0 37 8 50 17 l24 17 -34 11 c-19 7 -43 15 -54 18 -11 3 -88 -18
-173 -47z"/>
<path d="M10220 1876 c0 -47 3 -86 8 -86 4 0 19 10 34 23 l26 22 -34 63 -34
64 0 -86z"/>
<path d="M9187 1833 c-15 -14 -6 -33 17 -39 19 -4 24 -12 23 -32 -2 -21 5 -30
30 -42 18 -8 33 -20 33 -27 0 -6 14 -16 30 -22 20 -7 30 -17 30 -31 0 -13 9
-24 26 -30 40 -16 64 -12 64 8 0 11 9 27 20 37 24 21 26 58 5 75 -8 7 -15 18
-15 26 0 17 -39 44 -63 44 -10 0 -30 9 -44 20 -19 15 -41 20 -88 20 -34 0 -65
-3 -68 -7z"/>
<path d="M8813 1617 l-153 -52 61 -20 61 -21 127 43 c69 24 136 49 149 55 23
12 23 12 -10 24 -73 24 -81 23 -235 -29z"/>
<path d="M10348 1338 c5 -5 16 -8 23 -6 8 3 3 7 -10 11 -17 4 -21 3 -13 -5z"/>
<path d="M10398 1323 c6 -2 18 -2 25 0 6 3 1 5 -13 5 -14 0 -19 -2 -12 -5z"/>
<path d="M10258 1293 c6 -2 18 -2 25 0 6 3 1 5 -13 5 -14 0 -19 -2 -12 -5z"/>
<path d="M9317 1105 c-12 -17 -28 -25 -48 -25 -18 0 -28 -4 -24 -10 9 -15 47
-12 90 6 31 12 39 13 46 3 6 -10 9 -9 15 4 8 22 -13 47 -40 47 -11 0 -29 -12
-39 -25z"/>
<path d="M9157 1060 c-3 -13 -17 -22 -36 -26 -17 -4 -34 -11 -37 -15 -8 -14
39 -11 85 6 38 13 41 13 41 -3 1 -16 1 -16 11 0 14 25 -6 58 -35 58 -15 0 -26
-7 -29 -20z"/>
<path d="M1341 2881 c-8 -11 -21 -16 -32 -14 -11 3 -19 0 -19 -6 0 -6 9 -11
19 -11 33 0 71 19 71 35 0 21 -23 19 -39 -4z"/>
<path d="M1473 2858 c1 -6 -13 -16 -30 -21 -34 -10 -45 -27 -18 -27 8 0 15 5
15 11 0 6 7 8 16 5 18 -7 84 19 84 33 0 6 -16 11 -35 11 -21 0 -34 -5 -32 -12z"/>
<path d="M2005 2200 c-3 -5 -16 -10 -28 -10 -16 0 -18 -3 -9 -12 13 -13 62 4
62 22 0 13 -17 13 -25 0z"/>
<path d="M2577 2044 c-10 -13 -17 -29 -15 -34 5 -17 48 20 48 41 0 26 -11 24
-33 -7z"/>
<path d="M3351 2021 c-10 -7 -11 -13 -2 -30 13 -24 22 -25 70 -7 l34 12 -26
17 c-29 19 -55 21 -76 8z"/>
<path d="M2040 1961 c0 -17 21 -22 55 -12 21 7 24 10 10 10 -11 1 -30 4 -42 7
-14 4 -23 2 -23 -5z"/>
<path d="M2571 1916 c-5 -13 -19 -26 -31 -29 -18 -5 -21 -11 -16 -31 5 -20 1
-29 -17 -41 -22 -14 -52 -63 -44 -71 9 -9 127 -34 162 -34 61 0 73 14 25 29
-31 9 -44 21 -60 51 -23 44 -26 98 -7 123 6 9 28 18 47 20 33 4 32 4 -8 5 -36
2 -44 -1 -51 -22z"/>
<path d="M2680 1883 c0 -6 -3 -18 -6 -27 -3 -9 -1 -16 5 -16 17 0 25 30 12 43
-8 8 -11 8 -11 0z"/>
<path d="M4066 1845 c8 -19 15 -19 40 0 18 14 17 14 -13 15 -25 0 -31 -4 -27
-15z"/>
<path d="M3272 1823 c2 -12 48 -31 168 -70 91 -29 171 -53 179 -53 28 0 131
43 131 55 0 10 -17 8 -66 -8 l-66 -22 -167 58 c-91 31 -170 57 -174 57 -5 0
-7 -8 -5 -17z"/>
<path d="M3190 1780 c-73 -7 -90 -14 -90 -36 0 -47 96 -86 107 -44 3 11 9 17
14 14 15 -9 62 42 56 60 -4 9 -10 15 -14 15 -4 -1 -37 -5 -73 -9z"/>
<path d="M2344 1683 c-16 -3 -20 -9 -17 -24 4 -14 11 -18 22 -13 9 3 24 9 34
11 14 4 15 8 6 19 -6 8 -14 13 -18 13 -3 -1 -16 -4 -27 -6z"/>
<path d="M3455 1451 c56 -20 90 -17 59 6 -10 7 -38 13 -63 12 l-46 -1 50 -17z"/>
<path d="M3080 1406 c0 -20 21 -34 68 -45 23 -6 60 -16 83 -21 42 -11 133 -3
298 25 46 8 88 12 92 9 5 -3 9 -34 9 -69 0 -58 2 -63 20 -58 11 3 23 10 26 14
6 11 -45 147 -58 155 -5 3 -18 -2 -28 -11 -10 -9 -23 -15 -28 -12 -4 3 -46 11
-91 16 -74 10 -89 8 -144 -10 -69 -23 -148 -21 -212 5 -28 12 -35 12 -35 2z"/>
</g>
</svg>
